HIERARCHY
ROOT Bip01_Pelvis
{
	OFFSET 0.000000 0.437528 0.000000
	CHANNELS 6 Xposition Yposition Zposition Zrotation Yrotation Xrotation 
	JOINT BN_Fur_R_02
	{
		OFFSET -0.128197 0.210088 0.047880
		CHANNELS 3 Zrotation Yrotation Xrotation
		End Site #name: BN_Fur_R_03
		{
			OFFSET -0.243330 0.077617 -0.317922
		}
	}
	JOINT BN_Fur_L_02
	{
		OFFSET 0.128199 0.210089 0.047868
		CHANNELS 3 Zrotation Yrotation Xrotation
		End Site #name: BN_Fur_L_03
		{
			OFFSET 0.243301 0.077618 -0.317944
		}
	}
	JOINT BN_Tail_01
	{
		OFFSET -0.000009 0.131821 -0.198980
		CHANNELS 3 Zrotation Yrotation Xrotation
		JOINT BN_Tail_02
		{
			OFFSET -0.000020 0.237423 -0.452234
			CHANNELS 3 Zrotation Yrotation Xrotation
			JOINT BN_Tail_03
			{
				OFFSET -0.000018 0.229887 -0.395705
				CHANNELS 3 Zrotation Yrotation Xrotation
				End Site #name: BN_Tail_04
				{
					OFFSET -0.000023 0.071604 -0.516302
				}
			}
		}
	}
	JOINT Bip01_Spine
	{
		OFFSET 0.000005 -0.020834 0.125849
		CHANNELS 3 Zrotation Yrotation Xrotation
		JOINT Bip01_R_Thigh
		{
			OFFSET -0.160209 0.020867 -0.125839
			CHANNELS 3 Zrotation Yrotation Xrotation
			JOINT Bip01_R_Calf
			{
				OFFSET -0.011955 -0.213103 -0.004658
				CHANNELS 3 Zrotation Yrotation Xrotation
				JOINT Bip01_R_Foot
				{
					OFFSET 0.010694 -0.159453 -0.059157
					CHANNELS 3 Zrotation Yrotation Xrotation
					JOINT Bip01_R_Toe0
					{
						OFFSET -0.000878 -0.064882 0.080557
						CHANNELS 3 Zrotation Yrotation Xrotation
						End Site #name: Bip01_R_Toe0Nub
						{
							OFFSET -0.000134 -0.000057 0.012337
						}
					}
				}
			}
		}
		JOINT Bip01_L_Thigh
		{
			OFFSET 0.160202 0.020801 -0.125859
			CHANNELS 3 Zrotation Yrotation Xrotation
			JOINT Bip01_L_Calf
			{
				OFFSET 0.011952 -0.213103 -0.004659
				CHANNELS 3 Zrotation Yrotation Xrotation
				JOINT Bip01_L_Foot
				{
					OFFSET -0.010701 -0.159453 -0.059156
					CHANNELS 3 Zrotation Yrotation Xrotation
					JOINT Bip01_L_Toe0
					{
						OFFSET 0.000885 -0.064882 0.080557
						CHANNELS 3 Zrotation Yrotation Xrotation
						End Site #name: Bip01_L_Toe0Nub
						{
							OFFSET 0.000135 -0.000057 0.012337
						}
					}
				}
			}
		}
		JOINT Bip01_Spine1
		{
			OFFSET 0.000013 -0.005508 0.215359
			CHANNELS 3 Zrotation Yrotation Xrotation
			End Site #name: BN_Fur_L_01
			{
				OFFSET 0.102598 0.158870 0.051528
			}
			End Site #name: BN_Fur_R_01
			{
				OFFSET -0.102646 0.158821 0.051581
			}
			JOINT Bip01_Neck
			{
				OFFSET 0.000051 -0.009422 0.193643
				CHANNELS 3 Zrotation Yrotation Xrotation
				JOINT Bip01_Head
				{
					OFFSET 0.000383 0.147449 0.097835
					CHANNELS 3 Zrotation Yrotation Xrotation
					End Site #name: BN_Mouth_01
					{
						OFFSET 0.002232 -0.115707 0.129462
					}
					End Site #name: Bip01_HeadNub
					{
						OFFSET -0.002993 -0.003651 0.236212
					}
				}
				JOINT Bip01_R_Clavicle
				{
					OFFSET -0.015273 -0.005624 -0.099632
					CHANNELS 3 Zrotation Yrotation Xrotation
					JOINT Bip01_R_UpperArm
					{
						OFFSET -0.130154 -0.018083 -0.000456
						CHANNELS 3 Zrotation Yrotation Xrotation
						JOINT Bip01_R_Forearm
						{
							OFFSET 0.000421 -0.173003 -0.052834
							CHANNELS 3 Zrotation Yrotation Xrotation
							End Site #name: Bip01_R_Hand
							{
								OFFSET 0.003810 -0.157481 0.016147
							}
						}
					}
				}
				JOINT Bip01_L_Clavicle
				{
					OFFSET 0.015445 -0.005725 -0.099600
					CHANNELS 3 Zrotation Yrotation Xrotation
					JOINT Bip01_L_UpperArm
					{
						OFFSET 0.130154 -0.018083 -0.000468
						CHANNELS 3 Zrotation Yrotation Xrotation
						JOINT Bip01_L_Forearm
						{
							OFFSET -0.000426 -0.173003 -0.052834
							CHANNELS 3 Zrotation Yrotation Xrotation
							End Site #name: Bip01_L_Hand
							{
								OFFSET -0.003809 -0.157481 0.016147
							}
						}
					}
				}
			}
		}
	}
}
MOTION
Frames: 11
Frame Time: 0.041667
0.014787 0.350687 0.235872 -177.370324 2.154310 -133.909900 90.968640 -71.385899 54.689401 60.096668 6.974496 -60.559533 125.755347 -45.809963 -72.042914 -16.931440 -42.083185 -8.048732 -6.465071 37.651039 40.123596 4.117160 -0.107886 -47.043028 -2.591508 9.756437 -51.656521 -7.772456 5.618913 43.842406 9.027659 -11.388490 8.613987 -4.103811 5.575119 34.582754 17.237448 2.292419 -14.939357 -3.679534 2.928194 53.112681 -11.342870 1.266545 -32.121395 -0.885623 -3.501723 36.650747 1.132423 2.260094 6.965237 3.477611 -9.568347 23.376198 -4.256157 13.060349 -7.891781 -14.885334 -3.710294 -40.365276 -9.665916 -59.064138 5.829687 60.368400 -17.680289 19.406135 8.162209 24.513300 -56.885459 75.479283 8.445385 69.711758 -76.313323 22.656945 18.281176 
0.015031 0.348625 0.235656 -177.579077 2.212179 -135.538242 95.116396 -69.943297 51.404539 60.189284 7.426415 -60.552181 125.196726 -45.032324 -73.830416 -16.106139 -45.428144 -10.789101 -8.945908 35.794732 38.962396 4.085648 -0.246175 -45.215162 -2.626831 9.398949 -52.672906 -7.727797 5.732376 45.252250 9.045254 -10.808191 8.042963 -4.101787 5.514564 34.477186 17.097056 2.026344 -15.171263 -3.726666 2.985460 53.572747 -11.590437 1.379037 -32.790904 -0.825597 -3.478037 36.703302 0.348125 2.060412 6.179095 3.423533 -9.273281 22.943496 -3.161479 12.333351 -6.403555 -14.804506 -3.860348 -39.877049 -9.375790 -58.703940 6.602562 60.426328 -17.693450 19.394003 8.548711 24.228615 -56.434413 76.644920 5.206676 66.946917 -77.001475 22.793583 18.105500 
0.014829 0.346822 0.236604 -177.914556 2.118057 -137.299691 98.863331 -68.412968 48.583269 60.273176 7.897157 -60.559520 125.496026 -44.305188 -74.819167 -14.053283 -46.125952 -13.392974 -11.293739 34.066617 37.180165 4.131751 -0.553870 -43.190419 -2.835998 9.051567 -53.788756 -7.687676 5.827841 46.449714 9.037735 -10.136137 7.582042 -4.017313 5.381318 34.560779 16.706543 1.803489 -15.646933 -3.748953 3.012869 53.791869 -11.854566 1.747326 -33.401554 -0.717982 -3.539175 37.168448 -0.553128 2.151154 5.659258 3.389138 -9.012790 22.599077 -1.944523 11.509443 -6.188086 -14.717443 -4.002889 -39.481529 -8.689879 -58.825275 6.812948 60.501238 -17.710450 19.378294 8.855495 23.974570 -56.086707 77.467125 3.444596 64.555110 -75.799658 22.553557 18.411221 
0.014209 0.345097 0.238500 -178.369231 1.855160 -139.307908 102.313239 -66.770216 46.145853 60.351740 8.397471 -60.575316 126.297528 -43.579805 -75.456288 -11.205751 -45.510371 -16.147452 -13.697503 32.359374 34.781879 4.248805 -1.039635 -40.840655 -3.223280 8.671836 -55.074858 -7.647607 5.917953 47.590250 9.015881 -9.316552 7.209052 -3.846542 5.136012 34.711618 16.089584 1.589168 -16.472135 -3.767603 3.035970 53.976023 -12.152398 2.413579 -33.905524 -0.577816 -3.764224 37.791077 -1.615210 2.508667 5.280812 3.372051 -8.754469 22.319460 -0.554165 10.533887 -7.007204 -14.633098 -4.168051 -39.148098 -7.861532 -59.340583 6.717245 60.712108 -17.758184 19.333955 9.112079 23.722925 -55.815237 78.008663 2.656144 62.270344 -73.524466 22.081180 18.975702 
0.013094 0.343232 0.241257 -178.961964 1.327246 -141.689257 105.449649 -65.036396 44.119743 60.427121 8.916456 -60.588742 127.341191 -42.829793 -76.187453 -7.674487 -44.923034 -19.634513 -16.320615 30.620222 31.640559 4.438921 -1.766262 -37.997508 -3.838282 8.202802 -56.682837 -7.597994 6.023268 48.936778 9.008955 -8.258417 6.872459 -3.557220 4.699026 34.799447 15.232201 1.350801 -17.880735 -3.809553 3.088490 54.392932 -12.500387 3.493559 -34.220012 -0.414816 -4.303330 38.341862 -2.902083 3.142127 4.900342 3.379846 -8.470039 22.075405 1.115869 9.314977 -8.729226 -14.582227 -4.392677 -38.845427 -7.273875 -60.195734 6.608327 61.291014 -17.888319 19.211329 9.335214 23.443075 -55.593307 78.280396 2.466228 59.925305 -70.919835 21.512005 19.597910 
0.011654 0.341400 0.244601 -179.602145 0.641590 -144.290073 108.212510 -63.293314 42.518608 60.494598 9.435449 -60.607356 128.598615 -42.139892 -76.818472 -3.786373 -43.952404 -23.304380 -19.006480 28.854611 28.055304 4.663445 -2.642425 -34.870606 -4.584401 7.672866 -58.388068 -7.547437 6.124403 50.244741 8.988183 -7.048505 6.567563 -3.183975 4.139206 34.917464 14.228571 1.075394 -19.621115 -3.859292 3.151777 54.892118 -12.889844 4.843544 -34.417425 -0.237575 -5.027296 38.885380 -4.314708 3.983904 4.559325 3.400808 -8.171671 21.894638 2.929740 7.993451 -11.199397 -14.542094 -4.657232 -38.600495 -6.834992 -61.325182 6.458621 62.082225 -18.064001 19.041611 9.518736 23.154229 -55.445266 78.319866 2.726879 57.610921 -68.462312 20.947840 20.160267 
0.009965 0.339600 0.248392 179.749965 -0.152442 -147.145897 110.697402 -61.528575 41.270427 60.551952 9.965108 -60.642052 130.017551 -41.567590 -77.339067 0.356360 -42.650856 -27.050770 -21.844044 26.973707 24.076280 4.912143 -3.637399 -31.440700 -5.424119 7.069527 -60.079153 -7.501159 6.212189 51.392825 8.927443 -5.674956 6.213042 -2.730805 3.471653 35.168058 13.123503 0.732197 -21.619896 -3.915142 3.224227 55.459432 -13.346067 6.430258 -34.527631 -0.043298 -5.893237 39.405315 -5.849789 5.011729 4.237086 3.426051 -7.843842 21.784883 4.864974 6.572999 -14.330322 -14.495280 -4.970450 -38.419197 -6.580265 -62.706750 6.360334 63.043990 -18.274124 18.832056 9.674168 22.848976 -55.379491 78.202964 3.195838 55.213286 -66.822399 20.557061 20.521596 
0.008083 0.337863 0.252512 179.131694 -1.021253 -150.240378 112.936464 -59.766211 40.328786 60.603209 10.498285 -60.684297 131.594651 -41.125382 -77.763917 4.610758 -41.006875 -30.713178 -24.784942 24.934640 19.803735 5.163944 -4.720646 -27.738771 -6.323617 6.398548 -61.739645 -7.460397 6.286130 52.369714 8.820525 -4.156071 5.883565 -2.211500 2.707243 35.489707 11.939179 0.308325 -23.749877 -3.967220 3.293156 55.995197 -13.859851 8.200430 -34.669301 0.160436 -6.853738 40.011560 -7.486644 6.206802 3.925004 3.449966 -7.483975 21.756232 6.898605 5.109784 -18.052028 -14.432641 -5.333701 -38.309054 -6.522603 -64.306782 6.363279 64.137900 -18.508523 18.589463 9.802638 22.526613 -55.407009 78.030759 3.636874 52.700005 -66.293311 20.428584 20.635724 
0.006198 0.336296 0.256574 178.615779 -1.845678 -153.434402 114.875313 -58.095126 39.686851 60.651558 11.011619 -60.724718 133.231108 -40.866793 -78.100524 8.670812 -39.159092 -33.987555 -27.720494 22.778989 15.552138 5.399893 -5.787578 -23.959958 -7.193172 5.698874 -63.241911 -7.430072 6.339265 53.077605 8.661002 -2.578926 5.666865 -1.664262 1.900258 35.825934 10.765778 -0.187991 -25.688752 -3.993767 3.328807 56.270826 -14.421051 9.982744 -35.057868 0.355287 -7.774930 40.901924 -9.124563 7.480838 3.624984 3.461028 -7.099050 21.821676 8.871227 3.688232 -22.058822 -14.338432 -5.734727 -38.283664 -6.722454 -66.002437 6.588022 65.246563 -18.741005 18.339069 9.899846 22.192915 -55.541081 78.105427 3.502838 50.043022 -67.767407 20.783631 20.314767 
0.004301 0.334871 0.260607 178.204680 -2.623281 -156.814308 116.615511 -56.481330 39.264480 60.697851 11.516010 -60.767021 134.971519 -40.791488 -78.365333 12.605988 -37.109478 -36.927215 -30.690521 20.430161 11.270539 5.614973 -6.848976 -20.011273 -8.030854 4.963888 -64.605739 -7.410487 6.372768 53.526596 8.442254 -0.907430 5.548748 -1.087668 1.043137 36.181371 9.596473 -0.761458 -27.520298 -4.009593 3.350230 56.435985 -15.041418 11.808349 -35.609280 0.537801 -8.689186 41.922716 -10.798138 8.854223 3.324440 3.456507 -6.674694 21.987679 10.831684 2.300339 -26.396576 -14.202730 -6.186647 -38.346227 -7.199735 -67.805594 7.099754 66.376647 -18.972664 18.079254 9.987682 21.847538 -55.787039 78.297156 3.053313 47.282537 -70.843769 21.494933 19.615683 
0.002526 0.333648 0.264337 177.941016 -3.259400 -160.356154 118.156286 -54.960079 39.027583 60.743887 11.997115 -60.809619 136.786487 -40.940668 -78.567994 16.309412 -34.984090 -39.414487 -33.660924 17.892561 7.139348 5.800751 -7.837186 -15.956088 -8.762847 4.225842 -65.747345 -7.405249 6.381647 53.645933 8.152697 0.829550 5.561244 -0.520875 0.187518 36.522901 8.499061 -1.400917 -29.192264 -4.029209 3.376952 56.641495 -15.700650 13.592834 -36.246957 0.700776 -9.556318 42.857755 -12.460567 10.279810 3.025135 3.425465 -6.202434 22.271689 12.678010 0.974215 -30.873636 -14.003655 -6.695733 -38.515615 -8.015292 -69.628772 8.053078 67.448329 -19.187330 17.828686 10.098876 21.504604 -56.157494 78.475506 2.401598 44.599459 -75.666944 22.526646 18.444667 
